<?xml version="1.0" encoding="UTF-8" standalone="no"?>
<!-- Created with Inkscape (http://www.inkscape.org/) -->

<svg
   xmlns:dc="http://purl.org/dc/elements/1.1/"
   xmlns:cc="http://creativecommons.org/ns#"
   xmlns:rdf="http://www.w3.org/1999/02/22-rdf-syntax-ns#"
   xmlns:svg="http://www.w3.org/2000/svg"
   xmlns="http://www.w3.org/2000/svg"
   xmlns:sodipodi="http://sodipodi.sourceforge.net/DTD/sodipodi-0.dtd"
   xmlns:inkscape="http://www.inkscape.org/namespaces/inkscape"
   width="379.81738"
   height="475.78189"
   id="svg3079"
   version="1.1"
   inkscape:version="0.48.3.1 r9886"
   sodipodi:docname="mayo.svg">
  <defs
     id="defs3081" />
  <sodipodi:namedview
     id="base"
     pagecolor="#ffffff"
     bordercolor="#666666"
     borderopacity="1.0"
     inkscape:pageopacity="0.0"
     inkscape:pageshadow="2"
     inkscape:zoom="0.7"
     inkscape:cx="117.01844"
     inkscape:cy="126.86234"
     inkscape:document-units="px"
     inkscape:current-layer="layer1"
     showgrid="false"
     fit-margin-top="0"
     fit-margin-left="0"
     fit-margin-right="0"
     fit-margin-bottom="0"
     inkscape:window-width="1391"
     inkscape:window-height="876"
     inkscape:window-x="49"
     inkscape:window-y="24"
     inkscape:window-maximized="1" />
  <metadata
     id="metadata3084">
    <rdf:RDF>
      <cc:Work
         rdf:about="">
        <dc:format>image/svg+xml</dc:format>
        <dc:type
           rdf:resource="http://purl.org/dc/dcmitype/StillImage" />
        <dc:title />
      </cc:Work>
    </rdf:RDF>
  </metadata>
  <g
     inkscape:label="Calque 1"
     inkscape:groupmode="layer"
     id="layer1"
     transform="translate(-93.956612,-295.76425)">
    <g
       id="g3176"
       transform="translate(3.9995377,1.0032355)">
      <path
         sodipodi:nodetypes="cscccccssssccsscssssssssssssssssssssscsssssssssscssssssscssssssscsscsssccsccsccssscscsscss"
         inkscape:connector-curvature="0"
         id="path3170"
         d="m 123.35717,744.81552 c 12.78891,-1.29857 30.49897,-3.33341 49.26948,-5.66094 l 13.26948,-1.6454 -0.26948,-21.10922 -0.26948,-21.10922 -38.25,-0.26188 -38.25,-0.26189 -0.0669,7.76189 c -0.0368,4.26903 -0.26078,15.56895 -0.49781,25.11091 -0.23703,9.54197 -0.16908,17.77278 0.151,18.29068 0.32008,0.5179 1.3316,0.73022 2.24781,0.47182 0.91622,-0.25841 6.61585,-0.97244 12.66585,-1.58675 z m 120,-4.0249 c 15.49636,-1.35792 87.43608,-7.43472 136,-11.48803 52.36289,-4.37038 55.49906,-4.67581 55.50462,-5.40545 0.006,-0.77016 2.7782,-60.13148 3.46097,-74.1064 0.28214,-5.775 0.74793,-16.125 1.03509,-23 0.28715,-6.875 0.73134,-16.775 0.98708,-22 0.25575,-5.225 0.7127,-16.025 1.01545,-24 0.30275,-7.975 0.75286,-18.775 1.00025,-24 0.24739,-5.225 0.68801,-15.575 0.97917,-23 0.29115,-7.425 0.74779,-18.675 1.01475,-25 1.16924,-27.70268 1.47999,-35.36579 2.0073,-49.5 0.30778,-8.25 0.75984,-19.05 1.00457,-24 0.24473,-4.95 0.69139,-17.325 0.99259,-27.5 0.3012,-10.175 0.74669,-23.225 0.98997,-29 0.24328,-5.775 0.6982,-18.6 1.01093,-28.5 0.31274,-9.9 0.776,-21.0375 1.02949,-24.75 0.40509,-5.93297 0.24947,-6.7499 -1.28568,-6.74916 -1.82633,8.7e-4 -20.48597,1.65174 -28.24655,2.49905 -2.475,0.27022 -23.4,2.07802 -46.5,4.01734 -23.1,1.93932 -43.8,3.71646 -46,3.9492 -2.2,0.23275 -8.05,0.707 -13,1.0539 -4.95,0.34689 -10.125,0.79407 -11.5,0.99374 -1.375,0.19967 -6.55,0.63914 -11.5,0.97662 -4.95,0.33747 -10.575,0.80484 -12.5,1.03859 -4.70441,0.57124 -75.76881,6.56235 -79.25,6.6812 -2.09637,0.0716 -2.74991,0.5925 -2.74962,2.1917 5e-4,2.72104 2.79615,50.97968 3.4815,60.09782 0.51057,6.79271 2.96447,51.71773 4.04203,74 0.29258,6.05 0.72955,13.7 0.97105,17 0.24149,3.3 0.68634,11.85 0.98854,19 0.30221,7.15 0.75737,16.15 1.01148,20 0.73503,11.13621 2.77662,57.97497 4.01007,92 0.68667,18.94203 1.43452,37.83889 1.99856,50.5 0.25727,5.775 0.70434,17.475 0.99348,26 0.28914,8.525 0.8029,21.51938 1.14169,28.87639 l 0.61598,13.37639 7.12262,-0.6445 c 3.91744,-0.35447 12.07262,-1.07826 18.12262,-1.6084 z m -122,-59.48988 c 4.4,-0.34941 9.125,-0.79292 10.5,-0.98558 1.375,-0.19265 5.65,-0.64756 9.5,-1.0109 3.85,-0.36334 8.575,-0.8338 10.5,-1.04546 1.925,-0.21166 10.24846,-1.11453 18.49659,-2.00637 8.24812,-0.89184 15.11814,-1.74308 15.2667,-1.89165 0.56152,-0.56152 4.38842,-38.77214 3.92598,-39.19991 -0.46923,-0.43405 -23.60382,-1.34111 -49.68927,-1.94822 -15.675,-0.36481 -28.8375,-0.86054 -29.25,-1.10162 -0.4125,-0.24108 -0.77551,0.37573 -0.80669,1.37069 -0.65003,20.74425 -0.92428,46.91623 -0.50312,48.01375 0.30697,0.79997 1.32532,1.2139 2.30488,0.93687 0.96521,-0.27297 5.35493,-0.78219 9.75493,-1.1316 z m 28,-67.01807 c 15.95,-1.42241 30.35,-2.75962 32,-2.97158 1.65,-0.21195 4.7224,-0.41574 6.82756,-0.45286 l 3.82755,-0.0675 -0.62283,-19.71195 c -0.34256,-10.84156 -0.72264,-19.81174 -0.84461,-19.93371 -0.12198,-0.12198 -16.9766,-0.54054 -37.45472,-0.93014 l -37.23295,-0.70836 -0.077,4.89208 c -0.0424,2.69064 -0.2764,6.91708 -0.52009,9.39208 -1.34569,13.66716 -2.39648,26.97033 -2.39948,30.37781 l -0.003,3.87781 3.75,-0.58874 c 2.0625,-0.32381 16.8,-1.75253 32.75,-3.17495 z m -19,-59.97134 c 25.43006,-3.05121 47.22504,-5.58579 52.5,-6.10533 3.025,-0.29793 6.57431,-0.76234 7.88735,-1.03201 l 2.38736,-0.4903 -0.61927,-20.19648 c -0.34059,-11.10806 -0.6274,-20.3658 -0.63735,-20.57276 -0.0198,-0.41264 -75.24581,0.77067 -75.66536,1.19022 -0.25317,0.25317 -1.69026,19.45034 -2.91473,38.93607 l -0.61269,9.75 2.83734,-0.0198 c 1.56054,-0.0109 8.23735,-0.66772 14.83735,-1.45961 z"
         style="fill:#edd400" />
      <path
         sodipodi:nodetypes="ssssssssssssssssssssssssssssssssssssssssssssssssssssscssscccsssssscscsssssssssssssccssssssscsssssssscsssssssssssscsscssssssssscssssscscscsscsssssssssss"
         inkscape:connector-curvature="0"
         id="path3174"
         d="m 123.14034,737.49518 c 0.32067,-0.83565 4.35226,-1.73515 11.35699,-2.53389 5.97291,-0.68109 14.68484,-1.6886 19.35984,-2.23891 13.26853,-1.56188 21.2621,-1.62865 21.74742,-0.18164 0.23059,0.6875 1.05675,1.25 1.83591,1.25 1.05051,0 1.41667,-1.42157 1.41667,-5.5 0,-5.8766 -0.37949,-6.37153 -3.03958,-3.96418 -1.0333,0.93512 -5.17093,1.90831 -10.57874,2.48816 -4.88493,0.52379 -10.68168,1.15735 -12.88168,1.40791 -2.2,0.25057 -8.275,0.7366 -13.5,1.08007 -10.67054,0.70143 -10.76419,0.85848 3.25,-5.45034 10.36592,-4.66648 9.28775,-6.53258 -5.53613,-9.58198 -4.83237,-0.99406 -8.43237,-2.15832 -8,-2.58724 0.43237,-0.42891 10.12927,-0.88346 21.54867,-1.01011 19.46297,-0.21585 20.85445,-0.10984 22.23099,1.69372 1.27208,1.66669 1.60269,1.72339 2.47215,0.42399 1.24251,-1.85691 1.36148,-12.67977 0.14763,-13.42997 -0.48768,-0.30141 -1.44279,0.12204 -2.12245,0.94098 -1.03258,1.24418 -5.24599,1.48899 -25.62687,1.48899 -17.77053,0 -24.9386,-0.33929 -26.40807,-1.25 -1.63612,-1.01398 -2.17601,-0.99445 -2.8594,0.10347 -1.17844,1.89327 -2.20973,11.44252 -1.32557,12.27422 0.40098,0.37719 4.10405,1.6761 8.22905,2.88647 4.125,1.21036 7.90071,2.44295 8.39048,2.73909 0.48976,0.29613 -1.98524,1.61745 -5.5,2.93626 -3.51477,1.31881 -6.92601,2.94069 -7.58054,3.60416 -1.61165,1.63369 -0.53534,13.70633 1.22196,13.70633 0.68977,0 1.47784,-0.583 1.75127,-1.29556 z m 154.47092,-37.33184 c 12.8251,-0.47602 18.56752,-1.05519 19.30796,-1.94737 0.57963,-0.69841 0.91529,-3.42297 0.74591,-6.05457 -0.30003,-4.66152 -0.41096,-4.81158 -4.30796,-5.82769 -8.24121,-2.14883 -13.15271,-7.28035 -14.87654,-15.54297 -0.53977,-2.58725 -2.14073,-36.16377 -3.09924,-65 -0.59715,-17.96466 -1.30403,-36.57347 -2.01328,-53 -0.24935,-5.775 -0.74849,-18.375 -1.1092,-28 -0.36071,-9.625 -0.78668,-18.625 -0.94661,-20 -0.15992,-1.375 -0.57772,-11.05 -0.92843,-21.5 -0.35072,-10.45 -0.80983,-19.9 -1.02025,-21 -0.21042,-1.1 -0.65469,-11.675 -0.98725,-23.5 -0.60449,-21.4938 -0.60412,-21.49896 1.27903,-17.8984 1.03603,1.98088 11.02858,28.08088 22.20567,58 11.17709,29.91912 20.75376,54.9609 21.28148,55.6484 1.43348,1.86747 15.11106,1.68218 16.69484,-0.22617 1.06036,-1.27765 10.48863,-37.01878 17.54855,-66.52383 2.54149,-10.62145 12.9282,-52.08563 17.66015,-70.5 1.69601,-6.6 3.49848,-12.675 4.0055,-13.5 0.86257,-1.40353 0.502,29.81454 -0.69877,60.5 -0.25827,6.6 -0.70597,20.1 -0.99489,30 -0.98886,33.88415 -2.4483,77.99601 -2.9611,89.5 -0.28194,6.325 -0.77561,18.925 -1.09705,28 -1.24956,35.27842 -2.37397,51.59012 -3.90546,56.65588 -1.93678,6.40637 -6.26036,10.40652 -14.49202,13.40794 l -6.04513,2.20416 0,5.30699 c 0,2.91885 0.471,5.59809 1.04666,5.95387 1.00522,0.62126 56.74049,-1.0615 71.70334,-2.16486 l 7.25,-0.53462 0,-5.87614 0,-5.87613 -4.00713,-1.07901 c -5.26896,-1.41878 -10.69294,-6.89862 -11.61371,-11.73333 -1.20096,-6.30589 -1.10944,-10.91185 1.62478,-81.76475 0.50939,-13.2 1.18049,-32.1 1.49134,-42 0.31084,-9.9 0.76777,-23.4 1.0154,-30 0.56555,-15.07364 1.29889,-39.03199 2.0049,-65.5 1.19385,-44.75695 1.42615,-45.59727 12.68911,-45.90032 3.42828,-0.0922 3.75455,-0.36547 4.37301,-3.66215 0.61837,-3.29623 0.13236,-12.10201 -0.71043,-12.87177 -0.202,-0.18449 -12.96727,-0.66009 -28.36727,-1.05689 -15.4,-0.3968 -30.14615,-0.82181 -32.76922,-0.94447 -2.87679,-0.13452 -5.18554,0.27863 -5.81843,1.04122 -0.57707,0.69532 -3.53191,9.95601 -6.56632,20.5793 -3.0344,10.6233 -6.56345,22.91508 -7.84234,27.31508 -1.27889,4.4 -3.89314,13.4 -5.80944,20 -7.34026,25.28083 -10.86017,36.95945 -11.40541,37.84166 -0.31108,0.50334 -0.92081,0.28045 -1.35495,-0.49531 -0.76611,-1.36896 -9.00861,-28.16694 -19.02266,-61.84635 -6.57045,-22.09784 -5.98969,-21.00407 -11.13979,-20.98019 -2.34929,0.0109 -7.19644,0.42702 -10.77144,0.92472 -3.575,0.49771 -9.2,1.16177 -12.5,1.4757 -3.3,0.31393 -11.85,1.25202 -19,2.08465 -26.30068,3.06273 -24.45861,2.41018 -24.48469,8.67369 -0.0172,4.14377 2.06303,6.8196 5.30612,6.82517 3.26252,0.006 8.59386,3.64325 9.73379,6.64151 0.9009,2.36953 1.69196,14.0201 3.41902,50.35475 2.04334,42.98842 2.56179,53.50785 3.03106,61.5 0.29065,4.95 0.97123,20.7 1.51242,35 0.54118,14.3 1.46572,37.925 2.05454,52.5 1.70129,42.11187 1.62763,51.57131 -0.45531,58.47334 -2.27193,7.52826 -6.33871,12.70556 -12.11186,15.41927 l -4.50509,2.11764 0,5.32821 c 0,2.93051 0.3375,5.68124 0.75,6.11271 0.4125,0.43148 5.475,0.51776 11.25,0.19173 5.775,-0.32603 18.71434,-0.89766 28.75409,-1.2703 z M 173.85717,667.68375 c 0,-3.52497 -0.248,-4.00275 -1.75,-3.3714 -3.6509,1.5346 -6.36393,1.67384 -9.25784,0.47514 -2.78522,-1.15367 -2.99216,-1.60226 -2.99216,-6.48629 l 0,-5.24691 5.93851,-1.66626 c 3.26618,-0.91644 7.05387,-1.38632 8.4171,-1.04417 2.36223,0.59288 2.51126,0.36054 3.17469,-4.94933 0.38286,-3.06428 0.42561,-6.2763 0.095,-7.13784 -0.5248,-1.36761 -0.86537,-1.32021 -2.68335,0.37349 -2.16894,2.02068 -4.48589,2.76215 -19.44196,6.22177 -13.98746,3.23556 -33.71335,8.08343 -35.17753,8.64529 -0.72736,0.27911 -1.32247,1.56318 -1.32247,2.85348 0,2.87594 0.55585,3.04782 27.4542,8.48967 10.97481,2.22033 21.09981,4.64474 22.5,5.38758 4.29253,2.2773 5.0458,1.89748 5.04581,-2.54422 z m -26.5,-6.41261 c -3.3,-0.7436 -6.5625,-1.38088 -7.25,-1.4162 -0.6875,-0.0353 -1.25,-0.42913 -1.25,-0.87515 0,-0.80639 6.08723,-2.53725 13.25,-3.76753 l 3.75,-0.6441 0,4.11129 c 0,4.61476 0.20322,4.55279 -8.5,2.59169 z m -9.5,-55.75924 c 17.33515,-7.93705 19.64758,-8.5599 30.34062,-8.17232 5.41234,0.19617 10.40374,0.82404 11.09201,1.39525 1.98997,1.65153 2.56737,0.16479 2.56737,-6.61076 0,-6.21029 -0.57076,-7.36257 -2.62794,-5.30539 -0.56536,0.56536 -5.71786,1.27464 -11.45,1.57618 -9.91546,0.52159 -10.98105,0.37456 -21.92206,-3.02488 -6.325,-1.96522 -12.2875,-3.5745 -13.25,-3.57618 -0.9625,-0.002 -2.65,-0.90306 -3.75,-2.00306 -2.81088,-2.81088 -3.68111,-2.51336 -4.43721,1.51701 -0.8294,4.42108 -0.0687,5.8241 2.43216,4.48569 1.03046,-0.55148 2.94885,-1.0027 4.26308,-1.0027 2.79613,0 18.79843,4.65646 19.94599,5.80402 0.73902,0.73902 -18.37233,8.26389 -20.87069,8.2176 -0.64166,-0.0119 -1.37291,-0.58412 -1.625,-1.27162 -0.35167,-0.9591 -0.74913,-0.97665 -1.7079,-0.0754 -0.90451,0.85022 -1.05289,3.01125 -0.53731,7.82563 0.65484,6.11487 0.84627,6.53028 2.37457,5.15298 0.91427,-0.82398 5.03731,-3.04338 9.16231,-4.93205 z m 31.0556,-62.24078 c 8.08961,-2.85418 13.94985,-9.02552 13.94066,-14.68072 -0.01,-6.08937 -8.47333,-12.73626 -18.49626,-14.52633 -18.95951,-3.38611 -40.5,5.26452 -40.5,16.26473 0,6.26967 3.87479,10.01906 13.5,13.06312 5.83035,1.84389 26.20816,1.76589 31.5556,-0.1208 z m -28.24216,-7.55529 c -8.98629,-0.77263 -12.08079,-3.51488 -8.26844,-7.32724 2.40095,-2.40094 8.24369,-3.57164 20.54774,-4.11709 11.18817,-0.49599 22.0594,0.74789 24.70782,2.82704 0.7153,0.56155 1.1653,2.18453 1,3.6066 -0.22943,1.97371 -1.15396,2.86415 -3.90667,3.76265 -4.15617,1.35658 -24.25674,2.09268 -34.08045,1.24804 z"
         style="fill:#eeeeec" />
    </g>
  </g>
</svg>
